<svg xmlns="http://www.w3.org/2000/svg" width="24" height="24" viewBox="0 0 24 24">
  <path fill="#000000" fill-rule="evenodd" d="M11.9936523,18.6933594 L9.21044922,18.6933594 L9.21044922,12.9042969 L3.78320312,12.9042969 L3.78320312,18.6933594 L1,18.6933594 L1,5.18554688 L3.78320312,5.18554688 L3.78320312,10.6591797 L9.21044922,10.6591797 L9.21044922,5.18554688 L11.9936523,5.18554688 L11.9936523,18.6933594 Z M23.3955078,18.6933594 L14.1367187,18.6933594 L14.1367187,16.8564453 L18.5063477,12.1992188 C19.1062856,11.5436165 19.5500474,10.9715194 19.8376465,10.4829102 C20.1252456,9.99430094 20.269043,9.53043839 20.269043,9.09130859 C20.269043,8.4913707 20.1175145,8.01977711 19.8144531,7.67651367 C19.5113917,7.33325024 19.0784533,7.16162109 18.515625,7.16162109 C17.9095022,7.16162109 17.4317238,7.37035924 17.0822754,7.7878418 C16.732827,8.20532435 16.5581055,8.75422837 16.5581055,9.43457031 L13.8676758,9.43457031 C13.8676758,8.61197505 14.0640443,7.86051772 14.4567871,7.18017578 C14.84953,6.49983384 15.4046188,5.96639191 16.1220703,5.57983398 C16.8395218,5.19327606 17.6528275,5 18.5620117,5 C19.9536202,5 21.03442,5.33398104 21.8044434,6.00195312 C22.5744667,6.66992521 22.9594727,7.6131124 22.9594727,8.83154297 C22.9594727,9.49951506 22.7862973,10.1798468 22.4399414,10.8725586 C22.0935855,11.5652704 21.4998414,12.3723912 20.6586914,13.2939453 L17.5878906,16.5317383 L23.3955078,16.5317383 L23.3955078,18.6933594 Z"/>
</svg>
