<svg xmlns="http://www.w3.org/2000/svg" width="24" height="24" viewBox="0 0 24 24">
  <path fill="#000000" fill-rule="evenodd" d="M11.9936523,18.6933594 L9.21044922,18.6933594 L9.21044922,12.9042969 L3.78320312,12.9042969 L3.78320312,18.6933594 L1,18.6933594 L1,5.18554688 L3.78320312,5.18554688 L3.78320312,10.6591797 L9.21044922,10.6591797 L9.21044922,5.18554688 L11.9936523,5.18554688 L11.9936523,18.6933594 Z M16.8642578,10.7519531 L18.2929688,10.7519531 C18.9733107,10.7519531 19.4773747,10.5818702 19.8051758,10.2416992 C20.1329769,9.90152825 20.296875,9.45003537 20.296875,8.88720703 C20.296875,8.34293348 20.1345231,7.91927235 19.8098145,7.61621094 C19.4851058,7.31314953 19.0382515,7.16162109 18.4692383,7.16162109 C17.9558894,7.16162109 17.5260434,7.30232607 17.1796875,7.58374023 C16.8333316,7.8651544 16.6601562,8.23160582 16.6601562,8.68310547 L13.9790039,8.68310547 C13.9790039,7.97802382 14.1691876,7.34562454 14.5495605,6.78588867 C14.9299335,6.2261528 15.4618293,5.7885758 16.1452637,5.47314453 C16.8286981,5.15771327 17.5817016,5 18.4042969,5 C19.833015,5 20.9524699,5.34171208 21.7626953,6.02514648 C22.5729207,6.70858089 22.9780273,7.65022187 22.9780273,8.85009766 C22.9780273,9.46859033 22.7893899,10.0375951 22.4121094,10.5571289 C22.0348288,11.0766628 21.5400421,11.4755845 20.9277344,11.7539062 C21.6884804,12.026043 22.2559389,12.4342421 22.630127,12.9785156 C23.004315,13.5227892 23.1914062,14.1660119 23.1914062,14.9082031 C23.1914062,16.1080789 22.7538292,17.0698206 21.8786621,17.793457 C21.003495,18.5170935 19.8453848,18.8789062 18.4042969,18.8789062 C17.0559828,18.8789062 15.9535362,18.5232783 15.0969238,17.8120117 C14.2403115,17.1007451 13.8120117,16.1606504 13.8120117,14.9916992 L16.4931641,14.9916992 C16.4931641,15.4988632 16.6833477,15.9132471 17.0637207,16.2348633 C17.4440937,16.5564795 17.9125949,16.7172852 18.4692383,16.7172852 C19.1062857,16.7172852 19.6057111,16.5487484 19.9675293,16.2116699 C20.3293475,15.8745914 20.5102539,15.4277372 20.5102539,14.8710938 C20.5102539,13.5227797 19.7680738,12.8486328 18.2836914,12.8486328 L16.8642578,12.8486328 L16.8642578,10.7519531 Z"/>
</svg>
