<svg xmlns="http://www.w3.org/2000/svg" width="24" height="24" viewBox="0 0 24 24">
  <g fill="none" fill-rule="evenodd">
    <polygon points="0 0 24 0 24 24 0 24"/>
    <path fill="#000000" fill-rule="nonzero" d="M6,19 C6,20.1 6.9,21 8,21 L16,21 C17.1,21 18,20.1 18,19 L18,7 L6,7 L6,19 Z M8.46,11.88 L9.87,10.47 L12,12.59 L14.12,10.47 L15.53,11.88 L13.41,14 L15.53,16.12 L14.12,17.53 L12,15.41 L9.88,17.53 L8.47,16.12 L10.59,14 L8.46,11.88 Z M15.5,4 L14.5,3 L9.5,3 L8.5,4 L5,4 L5,6 L19,6 L19,4 L15.5,4 Z"/>
    <polygon points="0 0 24 0 24 24 0 24"/>
  </g>
</svg>
