<?xml version="1.0" encoding="UTF-8"?>
<svg width="24px" height="24px" viewBox="0 0 24 24" version="1.1" xmlns="http://www.w3.org/2000/svg" xmlns:xlink="http://www.w3.org/1999/xlink">
    <!-- Generator: Sketch 50.2 (55047) - http://www.bohemiancoding.com/sketch -->
    <title>image</title>
    <desc>Created with Sketch.</desc>
    <defs></defs>
    <g id="image" stroke="none" stroke-width="1" fill="none" fill-rule="evenodd">
        <g id="outline-photo-24px">
            <g id="Bounding_Boxes">
                <polygon id="Shape" points="0 0 24 0 24 24 0 24"></polygon>
            </g>
            <g id="Outline" transform="translate(3.000000, 3.000000)" fill="#000000" fill-rule="nonzero">
                <g id="Group">
                    <path d="M16,2 L16,16 L2,16 L2,2 L16,2 Z M16,0 L2,0 C0.9,0 0,0.9 0,2 L0,16 C0,17.1 0.9,18 2,18 L16,18 C17.1,18 18,17.1 18,16 L18,2 C18,0.9 17.1,0 16,0 Z" id="XMLID_48_"></path>
                    <polygon id="XMLID_46_" points="11.14 8.86 8.14 12.73 6 10.14 3 14 15 14"></polygon>
                </g>
            </g>
        </g>
    </g>
</svg>